<?xml version="1.0" standalone="no"?>
<!DOCTYPE svg PUBLIC "-//W3C//DTD SVG 20010904//EN"
 "http://www.w3.org/TR/2001/REC-SVG-20010904/DTD/svg10.dtd">
<svg version="1.0" xmlns="http://www.w3.org/2000/svg"
 width="192.000000pt" height="192.000000pt" viewBox="0 0 192.000000 192.000000"
 preserveAspectRatio="xMidYMid meet">
<metadata>
Created by potrace 1.14, written by Peter Selinger 2001-2017
</metadata>
<g transform="translate(0.000000,192.000000) scale(0.100000,-0.100000)"
fill="#000000" stroke="none">
<path d="M621 1910 c-148 -12 -255 -36 -337 -74 -212 -100 -269 -255 -281
-766 -9 -407 15 -645 81 -786 100 -212 255 -269 766 -281 407 -9 645 15 786
81 212 100 269 255 281 766 9 407 -15 645 -81 786 -73 156 -180 223 -414 260
-115 18 -640 27 -801 14z m51 -807 c3 -223 5 -241 26 -289 47 -103 127 -148
262 -148 135 0 215 45 262 148 21 48 23 66 26 289 l4 237 95 0 95 0 -4 -257
c-4 -242 -5 -262 -27 -318 -71 -180 -209 -279 -411 -292 -256 -17 -450 117
-505 348 -11 47 -15 124 -15 292 l0 227 94 0 94 0 4 -237z m386 22 l-3 -215
-27 -27 c-39 -38 -97 -38 -136 0 l-27 27 -3 215 -3 215 101 0 101 0 -3 -215z"/>
</g>
</svg>
